PathFileType	4	(X/Y/Z)	D:\TRACE\spotREDO_2-26-24\spot_Both_Motion_1_6-v60.trc
DataRate	CameraRate	NumFrames	NumMarkers	Units	OrigDataRate	OrigDataStartFrame	OrigNumFrames
100.00	100.00	      35	9	mm	100.00	6126	      7000
Frame#	Time	front left toe			Front right toe			aft left toe			aft right toe			Arm			FL body			FR body			AL Body			AR Body			
		X1	Y1	Z1	X2	Y2	Z2	X3	Y3	Z3	X4	Y4	Z4	X5	Y5	Z5	X6	Y6	Z6	X7	Y7	Z7	X8	Y8	Z8	X9	Y9	Z9	

6126	61.250	-64.68507	12.30040	-395.96924	437.38843	15.79797	-545.37866	131.27170	21.15420	147.95770	548.10144	30.12724	-2.47529	-21.07334	732.50476	-767.65753	73.03471	595.78979	-477.48984	223.95792	598.03479	-517.54822	296.33780	567.11438	377.58582	433.45270	570.17664	342.91205	
6127	61.260	-64.64463	12.02273	-396.13248	437.49454	15.38696	-545.39624	131.21721	21.30628	147.85017	548.20074	30.03457	-2.45196	-19.39027	731.50592	-768.30566	73.25824	595.57166	-478.45782	224.14751	597.86621	-519.15369	296.86890	567.35388	376.38980	434.02805	570.14355	341.85815	
6128	61.270	-64.65718	11.94211	-396.21506	437.46793	15.11681	-545.56012	131.24551	21.30125	147.73216	548.50940	29.82150	-2.65992	-16.98434	729.86401	-769.38727	73.98257	595.23041	-479.37451	224.70102	597.55469	-520.68530	297.69525	567.38306	375.38773	434.53659	570.04816	340.66681	
6129	61.280	-64.70665	11.78137	-396.25290	437.35034	14.65893	-545.65460	131.17703	21.27458	147.71175	548.45129	29.57714	-2.85005	-13.56404	727.90198	-770.97308	74.19441	594.80304	-480.34283	224.64252	597.02570	-521.10931	298.88058	567.59320	374.69202	435.57404	569.81732	339.59167	
6130	61.290	-64.74606	11.52094	-396.27338	437.31699	14.28189	-545.79303	131.25131	21.30030	147.67987	548.54980	29.53531	-2.94482	-9.11548	725.69696	-773.66815	74.15234	594.36084	-480.75647	224.75748	596.45795	-521.71094	300.12802	567.34631	373.89728	436.73483	569.52216	338.54581	
6131	61.300	-64.74911	11.47248	-396.24725	437.38864	14.06367	-545.78821	131.38187	21.34000	147.65239	548.46741	29.31417	-3.28673	-3.40007	722.47522	-775.46112	74.19260	593.77283	-481.14581	224.76241	595.95233	-522.38171	301.27979	566.73083	372.83493	438.64478	569.10052	337.26379	
6132	61.310	-64.79823	11.28821	-396.16119	437.21341	13.73728	-546.04016	131.47928	21.47119	147.53438	548.81482	29.40705	-3.19123	2.58469	719.11627	-778.77112	74.10544	593.24438	-481.41934	224.74925	595.36670	-522.98029	302.60703	566.56006	372.17102	439.57516	569.01752	336.74799	
6133	61.320	-65.17989	11.08164	-396.38086	437.04160	13.40835	-546.33466	131.64891	21.76869	147.42439	549.19312	29.42733	-3.14062	9.63358	715.59344	-781.96442	74.35497	592.62231	-481.66138	224.68130	594.37561	-523.48157	303.71210	567.42487	372.34024	441.01984	569.11310	336.06689	
6134	61.330	-65.06483	10.73365	-396.49164	436.94727	13.17278	-546.51764	131.73839	21.92287	147.35158	549.33813	29.28833	-3.27898	16.76530	711.95874	-785.54681	75.93310	590.99103	-482.39093	225.22417	593.34467	-523.82416	305.26804	566.95544	371.57397	441.90240	569.05933	335.57028	
6135	61.340	-64.81993	10.73082	-396.41675	436.89209	12.78719	-546.57477	131.65388	22.04459	147.23244	549.32849	29.22822	-3.29536	23.65495	708.12421	-788.66833	75.98269	590.25983	-482.63583	226.06052	591.90302	-524.27374	305.73434	567.23151	371.20547	442.65802	569.06042	335.31717	
6136	61.350	-64.73634	10.47938	-396.64087	436.99106	12.34171	-546.30927	131.43123	22.24585	147.06035	549.00433	29.19858	-3.25657	29.67748	704.56769	-791.57684	77.54822	588.86859	-483.47345	228.15700	590.44318	-525.37219	305.63641	567.75464	370.90598	442.71912	569.44019	335.22238	
6137	61.360	-64.75107	10.75557	-396.99295	437.57031	11.72058	-545.80792	131.19453	22.23558	147.00665	548.31934	29.17006	-3.36004	35.27839	701.17133	-793.39465	79.74361	587.29877	-484.46323	230.01176	588.59583	-525.30835	305.39902	568.37909	370.51584	442.29999	570.06476	335.26031	
6138	61.370	-64.71696	10.95214	-397.30981	437.97440	10.75018	-545.56409	130.67526	22.03808	146.73822	548.01990	29.05992	-3.41971	39.22524	698.33478	-794.58807	82.66956	585.38672	-485.93384	232.78804	586.64441	-525.97314	304.45016	568.72919	369.93430	441.83377	570.61615	335.07587	
6139	61.380	-64.49874	10.99154	-398.01572	438.45245	10.05411	-545.31958	129.80698	22.03002	146.38823	547.32983	29.08097	-3.04795	41.83302	696.05676	-795.26361	85.79633	583.47601	-487.28870	236.17361	584.37054	-526.76062	303.60117	569.85101	369.89127	440.81253	571.30457	335.69992	
6140	61.390	-64.34116	11.13352	-398.95706	438.92838	9.27940	-544.80444	129.26453	22.06739	146.12933	546.96564	29.23866	-2.35558	42.65265	694.18945	-795.24554	89.38679	581.56311	-488.92126	239.98512	582.43414	-528.03693	302.40701	570.68414	369.40735	439.73145	571.97321	335.94586	
6141	61.400	-64.13360	11.09304	-399.43271	439.02939	8.78700	-544.62347	128.62689	22.14995	145.88808	546.82605	29.13190	-2.13642	42.08570	692.81824	-794.56995	92.56550	579.36224	-490.47571	243.44078	580.14319	-528.47272	301.39853	570.82556	368.63666	438.89325	572.46875	336.07443	
6142	61.410	-64.12826	11.24331	-399.84106	439.24557	8.12419	-544.33264	128.23752	22.10642	145.77080	546.80615	29.04340	-1.99795	40.50161	692.09674	-793.16602	95.66700	577.69080	-491.90671	246.94923	578.06738	-529.12268	301.04944	571.26117	368.07922	438.73099	573.09271	336.20239	
6143	61.420	-63.99332	11.13357	-400.46017	439.26770	7.44872	-544.31628	128.00259	22.17016	145.60838	546.67169	28.80004	-1.95996	37.85070	692.24683	-791.85620	99.03279	575.68677	-493.14905	250.03900	576.13092	-530.00513	301.40317	572.14246	367.72150	438.95917	573.40088	335.99564	
6144	61.430	-64.05286	11.14081	-400.69626	439.23184	7.06107	-544.20813	127.76614	22.53934	145.28044	546.69263	28.61616	-2.02944	34.52289	692.49219	-789.62561	101.14684	573.98358	-494.05240	252.50235	574.68262	-530.75208	302.27805	572.06769	366.87155	439.98129	573.86108	335.86435	
6145	61.440	-64.28792	10.88542	-400.58124	438.90115	6.86748	-544.25897	127.72527	22.98571	145.00229	546.57043	28.51696	-2.07465	30.82032	693.32275	-787.89001	102.80708	572.41888	-494.52637	254.53534	573.48761	-531.38794	303.91962	572.17212	366.36804	441.55026	574.08380	335.20395	
6146	61.450	-64.52163	10.69192	-400.38855	438.48108	6.72191	-544.41571	127.74241	23.12560	144.94804	546.54016	28.44827	-2.09063	27.69823	694.12897	-786.23773	104.00968	571.19666	-494.90417	255.75722	572.37897	-531.64294	306.59869	572.43640	366.08173	444.21017	573.98834	334.29196	
6147	61.460	-65.08804	10.43005	-400.23779	437.74622	6.79269	-544.28693	127.68248	23.29618	144.89096	546.35931	28.09195	-2.32118	24.88337	695.05463	-785.23065	104.89249	570.05011	-494.69397	256.28592	571.42426	-531.60120	309.23911	572.45679	365.87936	447.17404	574.23993	333.62738	
6148	61.470	-65.75736	9.87552	-399.78394	436.63760	6.67776	-544.75342	127.78402	23.53976	144.96275	546.46545	27.73746	-2.73299	22.16492	696.32623	-785.37207	105.04240	568.92841	-494.25366	256.57062	571.04889	-532.10968	313.07233	572.09186	365.56696	450.73499	574.11810	332.71265	
6149	61.480	-66.50675	9.80580	-399.31113	435.98486	6.82104	-545.09399	128.29387	24.13928	145.03052	546.41187	27.34091	-3.21270	21.89783	696.78400	-784.37531	104.79597	568.48541	-493.39310	256.20566	570.69214	-531.81635	316.57822	571.41302	364.90149	454.69235	573.94849	331.75357	
6150	61.490	-66.94386	9.73380	-399.01462	435.01923	6.74577	-545.06006	128.39995	25.01470	144.99355	546.36310	26.96304	-3.60157	21.43781	697.94708	-785.34052	104.67046	567.94922	-492.71786	255.49829	570.87909	-532.09900	321.02466	571.15881	365.04123	458.54895	573.71741	330.84833	
6151	61.500	-67.43939	9.61075	-398.70145	433.87900	6.52159	-545.56207	128.22711	25.59370	144.93575	546.24054	26.75149	-3.87486	22.52073	698.28210	-785.77515	104.61333	567.46167	-491.70541	255.21715	570.82745	-531.93677	324.97998	570.37115	364.76880	462.60333	573.43439	330.02295	
6152	61.510	-67.89054	9.16545	-398.29993	433.23297	6.33901	-545.83185	128.14769	25.72149	144.92200	545.88916	26.49977	-4.02111	23.93667	698.36603	-787.01550	104.73223	567.09711	-490.83078	255.16698	570.75366	-531.61646	329.18817	569.53162	364.61975	465.77963	572.80157	329.46240	
6153	61.520	-68.40256	8.95530	-398.08923	432.92166	6.18229	-545.77374	128.06357	25.91772	144.97284	545.71582	26.35385	-4.10842	25.26643	699.08527	-788.69128	105.16331	567.06555	-490.25854	255.54338	570.66229	-531.29962	332.21747	568.98297	364.72913	469.10309	572.29523	329.16928	
6154	61.530	-68.86300	9.00824	-398.09793	432.39902	5.88952	-545.83777	127.84413	26.03812	144.95688	545.46216	26.20513	-4.16905	26.94379	699.00256	-790.21527	105.84275	567.11713	-489.51425	256.81903	570.46063	-530.47766	334.84219	568.46484	364.82074	471.61154	571.72559	328.94427	
6155	61.540	-69.28555	9.24478	-398.27792	432.39374	5.36194	-545.84235	127.21986	26.30326	145.05081	544.87317	26.07451	-4.21441	29.78348	698.57233	-790.73584	107.33456	567.06610	-489.07578	257.61685	570.58783	-530.64136	336.84671	567.98926	365.02713	473.52075	571.29340	329.13776	
6156	61.550	-69.64531	9.46908	-398.74918	432.28683	4.97150	-545.88489	126.42148	26.51485	145.23819	544.38245	26.18331	-4.19012	31.14882	698.41901	-791.98932	109.35802	566.89532	-489.06897	259.58710	570.18427	-530.56329	337.95062	567.26642	365.01016	474.95935	570.87775	329.42105	
6157	61.560	-69.84200	9.57784	-398.97464	432.23318	4.48171	-545.65796	125.94245	26.40224	145.32153	543.92065	26.14971	-3.81730	32.20280	698.41553	-792.82233	111.42484	566.70313	-489.07312	261.47131	569.77789	-530.26855	338.94629	567.37476	365.56274	475.70648	570.67242	330.02750	
6158	61.570	-69.84945	9.53956	-399.31586	432.28146	3.80927	-545.46533	125.24626	26.06090	144.92145	543.79779	26.45601	-3.35624	33.43514	697.93665	-793.21234	114.11694	566.57648	-489.45499	263.87735	569.44226	-530.12500	339.48950	567.30035	365.83386	476.49402	570.50989	330.31711	
6159	61.580	-69.99103	9.46244	-399.77008	432.26291	3.40841	-545.29498	124.48436	25.83024	144.78204	542.66425	26.14145	-3.44361	34.36889	697.40173	-793.12909	116.89680	566.42560	-489.90689	267.83768	568.74786	-529.72351	339.82007	567.29163	366.15704	476.87241	570.33075	331.19849	
6160	61.590	-70.39864	9.56963	-400.25616	432.01395	2.92968	-545.22180	123.54131	26.06131	144.68005	542.16479	26.03458	-3.31318	33.73425	697.21350	-793.28119	119.83315	565.94800	-490.19629	270.62234	568.66174	-530.15021	340.20917	567.30072	366.38083	477.47351	570.02594	331.96698	
